# xmcd
#
# Track frame offsets:
#	150
#	19006
#	44495
#	67729
#	90766
#	109124
#	129216
#	145988
#	165017
#	182718
#	196317
#	216258
#	234732
#	255475
#	273492
#
# Disc length: 3996 seconds
#
# Revision: 0
# Processed by: cddbd v1.5.2PL0 Copyright (c) Steve Scherf et al.
# Submitted via: EasyCDDAExtractor 11.0.2.1
#
DISCID=c20f9a0f
DTITLE=Ganksta Gank - When We Ride
DYEAR=2001
DGENRE=Rap
TTITLE0=When We Ride (Feat. T'Doe Woods)
TTITLE1=New World Hustle (Feat. Damien The 1 Purpose)
TTITLE2=Fuck All The Ho's (Feat. T'Doe Woods)
TTITLE3=Change (Feat. T'Doe Woods and Bo Bo)
TTITLE4=On The Run (Feat. T'Doe Woods)
TTITLE5=Round Trip (Feat. T'Doe Woods and Damien)
TTITLE6=Power Moves
TTITLE7=Killaz (Feat. T'Doe Woods, Bo Bo and Bullet Proof)
TTITLE8=Dick Control (Feat. T'Doe Woods and Marco)
TTITLE9=Blaze
TTITLE10=Do What You Feel (Feat. Damien)
TTITLE11=There They Go
TTITLE12=Sometimes It Rains (Feat. T'Doe Woods and Damien)
TTITLE13=Freak'n (Feat. L Dawg)
TTITLE14=Preasure (Feat. T'Doe Woods and Damien)
EXTD=
EXTT0=
EXTT1=
EXTT2=
EXTT3=
EXTT4=
EXTT5=
EXTT6=
EXTT7=
EXTT8=
EXTT9=
EXTT10=
EXTT11=
EXTT12=
EXTT13=
EXTT14=
PLAYORDER=
